<mxfile host="65bd71144e">
    <diagram id="ohqP2dMDaSPswFlk4yJ4" name="Page-1">
        <mxGraphModel dx="821" dy="737" grid="0" gridSize="10" guides="1" tooltips="1" connect="1" arrows="1" fold="1" page="1" pageScale="1" pageWidth="850" pageHeight="1100" math="0" shadow="0">
            <root>
                <mxCell id="0"/>
                <mxCell id="1" parent="0"/>
                <mxCell id="31" value="" style="rounded=0;whiteSpace=wrap;html=1;labelBackgroundColor=none;fontColor=#4D4D4D;fillColor=#FFFFFF;strokeColor=none;" parent="1" vertex="1">
                    <mxGeometry x="126" y="244" width="579" height="306" as="geometry"/>
                </mxCell>
                <mxCell id="19" value="" style="rounded=0;whiteSpace=wrap;html=1;fillColor=#1ba1e2;strokeColor=#006EAF;fontColor=#ffffff;" parent="1" vertex="1">
                    <mxGeometry x="580" y="402" width="80" height="40" as="geometry"/>
                </mxCell>
                <mxCell id="5" value="Pre-Process&lt;br&gt;Routine" style="rounded=0;whiteSpace=wrap;html=1;fillColor=#1ba1e2;strokeColor=#006EAF;fontColor=#000033;fontStyle=1" parent="1" vertex="1">
                    <mxGeometry x="198" y="310" width="88" height="40" as="geometry"/>
                </mxCell>
                <mxCell id="6" value="&lt;span style=&quot;font-family: Helvetica; font-size: 12px; font-style: normal; font-variant-ligatures: normal; font-variant-caps: normal; letter-spacing: normal; orphans: 2; text-align: center; text-indent: 0px; text-transform: none; widows: 2; word-spacing: 0px; -webkit-text-stroke-width: 0px; text-decoration-thickness: initial; text-decoration-style: initial; text-decoration-color: initial; float: none; display: inline !important;&quot;&gt;&lt;b&gt;Hash Responses Channel&lt;/b&gt;&lt;/span&gt;&lt;span style=&quot;font-family: Helvetica; font-size: 12px; font-style: normal; font-variant-ligatures: normal; font-variant-caps: normal; font-weight: 400; letter-spacing: normal; orphans: 2; text-align: center; text-indent: 0px; text-transform: none; widows: 2; word-spacing: 0px; -webkit-text-stroke-width: 0px; text-decoration-thickness: initial; text-decoration-style: initial; text-decoration-color: initial; float: none; display: inline !important;&quot;&gt;&amp;nbsp;&lt;br&gt;buffer=100&lt;br&gt;&lt;/span&gt;" style="strokeWidth=2;html=1;shape=mxgraph.flowchart.direct_data;whiteSpace=wrap;spacingRight=20;fillColor=#fa6800;strokeColor=#C73500;fontColor=#000000;labelBackgroundColor=none;spacingLeft=-16;" parent="1" vertex="1">
                    <mxGeometry x="348" y="490" width="203" height="40" as="geometry"/>
                </mxCell>
                <mxCell id="7" value="&lt;span style=&quot;font-family: Helvetica; font-size: 12px; font-style: normal; font-variant-ligatures: normal; font-variant-caps: normal; letter-spacing: normal; orphans: 2; text-align: center; text-indent: 0px; text-transform: none; widows: 2; word-spacing: 0px; -webkit-text-stroke-width: 0px; text-decoration-thickness: initial; text-decoration-style: initial; text-decoration-color: initial; float: none; display: inline !important;&quot;&gt;&lt;b&gt;Hash Request Channel &lt;br&gt;&lt;/b&gt;buffer=100&lt;br&gt;&lt;/span&gt;" style="strokeWidth=2;html=1;shape=mxgraph.flowchart.direct_data;whiteSpace=wrap;spacingRight=20;fillColor=#fa6800;strokeColor=#C73500;labelBackgroundColor=none;fontColor=#000000;spacingLeft=-16;" parent="1" vertex="1">
                    <mxGeometry x="348" y="310" width="203" height="40" as="geometry"/>
                </mxCell>
                <mxCell id="9" value="Post-Process&lt;br&gt;Routine" style="rounded=0;whiteSpace=wrap;html=1;fillColor=#1ba1e2;strokeColor=#006EAF;fontColor=#000033;fontStyle=1" parent="1" vertex="1">
                    <mxGeometry x="198" y="490" width="86" height="40" as="geometry"/>
                </mxCell>
                <mxCell id="10" value="Hash Worker&lt;br&gt;Routine N" style="rounded=0;whiteSpace=wrap;html=1;fillColor=#1ba1e2;strokeColor=#006EAF;fontColor=#000033;fontStyle=1" parent="1" vertex="1">
                    <mxGeometry x="574" y="396" width="80" height="40" as="geometry"/>
                </mxCell>
                <mxCell id="13" value="reads" style="endArrow=classic;html=1;entryX=0;entryY=0.5;entryDx=0;entryDy=0;entryPerimeter=0;exitX=1;exitY=0.5;exitDx=0;exitDy=0;labelBackgroundColor=#FFFFFF;strokeColor=#1A1A1A;fontColor=#1A1A1A;" parent="1" source="9" target="6" edge="1">
                    <mxGeometry width="50" height="50" relative="1" as="geometry">
                        <mxPoint x="413" y="360" as="sourcePoint"/>
                        <mxPoint x="463" y="410" as="targetPoint"/>
                    </mxGeometry>
                </mxCell>
                <mxCell id="14" value="&lt;span style=&quot;font-family: Helvetica; font-size: 12px; font-style: normal; font-variant-ligatures: normal; font-variant-caps: normal; letter-spacing: normal; orphans: 2; text-align: center; text-indent: 0px; text-transform: none; widows: 2; word-spacing: 0px; -webkit-text-stroke-width: 0px; text-decoration-thickness: initial; text-decoration-style: initial; text-decoration-color: initial; float: none; display: inline !important;&quot;&gt;&lt;b&gt;Join Channel&lt;/b&gt;&lt;br&gt;no buffer&lt;/span&gt;" style="strokeWidth=2;html=1;shape=mxgraph.flowchart.direct_data;whiteSpace=wrap;spacingRight=20;fillColor=#fa6800;strokeColor=#C73500;fontColor=#000000;labelBackgroundColor=none;" parent="1" vertex="1">
                    <mxGeometry x="185.5" y="402" width="111" height="40" as="geometry"/>
                </mxCell>
                <mxCell id="15" value="reads" style="endArrow=classic;html=1;entryX=0.5;entryY=0;entryDx=0;entryDy=0;entryPerimeter=0;labelBackgroundColor=#FFFFFF;strokeColor=#1A1A1A;fontColor=#1A1A1A;" parent="1" target="14" edge="1">
                    <mxGeometry width="50" height="50" relative="1" as="geometry">
                        <mxPoint x="240" y="350" as="sourcePoint"/>
                        <mxPoint x="330" y="390" as="targetPoint"/>
                    </mxGeometry>
                </mxCell>
                <mxCell id="16" value="writes" style="endArrow=classic;html=1;entryX=0;entryY=0.5;entryDx=0;entryDy=0;entryPerimeter=0;exitX=1;exitY=0.5;exitDx=0;exitDy=0;labelBackgroundColor=#FFFFFF;strokeColor=#1A1A1A;fontColor=#1A1A1A;" parent="1" source="5" target="7" edge="1">
                    <mxGeometry width="50" height="50" relative="1" as="geometry">
                        <mxPoint x="223" y="280" as="sourcePoint"/>
                        <mxPoint x="383" y="270" as="targetPoint"/>
                    </mxGeometry>
                </mxCell>
                <mxCell id="18" value="starts" style="endArrow=classic;html=1;exitX=0.5;exitY=0;exitDx=0;exitDy=0;entryX=1;entryY=0.5;entryDx=0;entryDy=0;strokeColor=#999999;dashed=1;fontColor=#4D4D4D;labelBackgroundColor=#FFFFFF;" parent="1" source="5" target="10" edge="1">
                    <mxGeometry x="-0.2504" width="50" height="50" relative="1" as="geometry">
                        <mxPoint x="280" y="280" as="sourcePoint"/>
                        <mxPoint x="790" y="340" as="targetPoint"/>
                        <Array as="points">
                            <mxPoint x="241" y="260"/>
                            <mxPoint x="690" y="260"/>
                            <mxPoint x="690" y="416"/>
                        </Array>
                        <mxPoint as="offset"/>
                    </mxGeometry>
                </mxCell>
                <mxCell id="20" value="writes" style="endArrow=classic;html=1;exitX=0.5;exitY=0;exitDx=0;exitDy=0;labelBackgroundColor=#FFFFFF;strokeColor=#1A1A1A;fontColor=#1A1A1A;" parent="1" source="9" target="14" edge="1">
                    <mxGeometry width="50" height="50" relative="1" as="geometry">
                        <mxPoint x="241" y="470" as="sourcePoint"/>
                        <mxPoint x="320" y="460" as="targetPoint"/>
                        <Array as="points"/>
                    </mxGeometry>
                </mxCell>
                <mxCell id="21" value="writes" style="endArrow=classic;html=1;entryX=1;entryY=0.5;entryDx=0;entryDy=0;entryPerimeter=0;align=center;exitX=0.5;exitY=1;exitDx=0;exitDy=0;labelBackgroundColor=#FFFFFF;strokeColor=#1A1A1A;fontColor=#1A1A1A;" parent="1" source="10" edge="1">
                    <mxGeometry x="0.4815" width="50" height="50" relative="1" as="geometry">
                        <mxPoint x="691" y="520" as="sourcePoint"/>
                        <mxPoint x="556" y="510" as="targetPoint"/>
                        <Array as="points">
                            <mxPoint x="614" y="510"/>
                        </Array>
                        <mxPoint as="offset"/>
                    </mxGeometry>
                </mxCell>
                <mxCell id="22" value="reads" style="endArrow=classic;html=1;entryX=1;entryY=0.5;entryDx=0;entryDy=0;entryPerimeter=0;exitX=0.5;exitY=0;exitDx=0;exitDy=0;labelBackgroundColor=#FFFFFF;strokeColor=#1A1A1A;fontColor=#1A1A1A;spacing=2;spacingLeft=0;targetPerimeterSpacing=0;" parent="1" source="10" edge="1">
                    <mxGeometry x="0.5196" width="50" height="50" relative="1" as="geometry">
                        <mxPoint x="671" y="360" as="sourcePoint"/>
                        <mxPoint x="551" y="330" as="targetPoint"/>
                        <Array as="points">
                            <mxPoint x="614" y="330"/>
                        </Array>
                        <mxPoint as="offset"/>
                    </mxGeometry>
                </mxCell>
                <mxCell id="25" value="starts" style="endArrow=classic;html=1;entryX=0;entryY=0.5;entryDx=0;entryDy=0;exitX=0;exitY=0.5;exitDx=0;exitDy=0;strokeColor=#999999;dashed=1;fontColor=#4D4D4D;labelBackgroundColor=#FFFFFF;" parent="1" source="5" target="9" edge="1">
                    <mxGeometry x="-0.7801" width="50" height="50" relative="1" as="geometry">
                        <mxPoint x="251" y="300" as="sourcePoint"/>
                        <mxPoint x="701" y="386" as="targetPoint"/>
                        <Array as="points">
                            <mxPoint x="140" y="330"/>
                            <mxPoint x="140" y="510"/>
                        </Array>
                        <mxPoint as="offset"/>
                    </mxGeometry>
                </mxCell>
                <mxCell id="34" value="starts" style="endArrow=classic;html=1;strokeColor=#999999;dashed=1;fontColor=#4D4D4D;labelBackgroundColor=#FFFFFF;movable=1;resizable=1;rotatable=1;deletable=1;editable=1;connectable=1;anchorPointDirection=0;exitX=1;exitY=0.5;exitDx=0;exitDy=0;entryX=0.22;entryY=0.025;entryDx=0;entryDy=0;entryPerimeter=0;" parent="1" source="35" target="5" edge="1">
                    <mxGeometry x="-0.4839" width="50" height="50" relative="1" as="geometry">
                        <mxPoint x="163" y="259" as="sourcePoint"/>
                        <mxPoint x="220" y="309" as="targetPoint"/>
                        <Array as="points">
                            <mxPoint x="217" y="260"/>
                        </Array>
                        <mxPoint as="offset"/>
                    </mxGeometry>
                </mxCell>
                <mxCell id="35" value="" style="ellipse;whiteSpace=wrap;html=1;aspect=fixed;fillColor=#999999;strokeColor=none;" parent="1" vertex="1">
                    <mxGeometry x="136" y="256" width="8" height="8" as="geometry"/>
                </mxCell>
            </root>
        </mxGraphModel>
    </diagram>
</mxfile>